<svg width="106" height="23" viewBox="0 0 106 23" fill="none" xmlns="http://www.w3.org/2000/svg">
<path d="M8.2326 3.34717C8.3373 2.12805 10.1203 2.12787 10.2253 3.34697L10.4856 6.37116C10.6803 9.12318 12.8694 11.313 15.6214 11.5086L21.8708 11.9529C22.8517 12.0226 22.8517 13.4627 21.8708 13.5325L15.5957 13.9785C12.8549 14.1734 10.6706 16.3468 10.4621 19.0866L10.0172 21.4524C9.94301 22.4281 8.51245 22.4281 8.43821 21.4524L7.97811 18.8862C7.77636 16.2348 5.72009 14.1003 3.07808 13.7997L0.702286 13.5294C-0.234096 13.4228 -0.234095 12.0625 0.702288 11.9559L3.05342 11.6884C5.70644 11.3866 7.76715 9.23605 7.9556 6.57256L8.2326 3.34717Z" fill="white"/>
<path d="M22.2918 3.34717C22.1871 2.12805 20.4041 2.12787 20.2992 3.34697L20.0388 6.37116C19.8441 9.12318 17.655 11.313 14.9031 11.5086L8.65363 11.9529C7.67276 12.0226 7.67275 13.4627 8.65362 13.5325L14.9287 13.9785C17.6695 14.1734 19.8539 16.3468 20.0623 19.0866L20.5072 21.4524C20.5814 22.4281 22.012 22.4281 22.0862 21.4524L22.5463 18.8862C22.7481 16.2348 24.8043 14.1003 27.4464 13.7997L29.8222 13.5294C30.7585 13.4228 30.7585 12.0625 29.8221 11.9559L27.471 11.6884C24.818 11.3866 22.7573 9.23605 22.5688 6.57256L22.2918 3.34717Z" fill="white"/>
<path d="M42.1868 21.76H37.0988L31.4348 0.32H35.2748L38.7628 13.888L39.7228 18.432H39.9788L41.1308 13.888L45.4508 0.32H50.4748L55.0828 13.888L56.2988 18.432H56.5548L57.4508 13.888L60.6508 0.32H64.4268L59.0508 21.76H53.9628L49.6428 9.28L48.0748 3.776H47.7868L46.2508 9.28L42.1868 21.76Z" fill="white"/>
<path d="M68.3178 21.76H64.8618V0.32H68.3178V21.76Z" fill="white"/>
<path d="M78.9101 22.08C72.5101 22.08 69.2461 19.264 69.2461 14.752V14.56H72.7021V15.072C72.7021 17.632 74.2061 18.912 78.9101 18.912C83.0061 18.912 84.4461 18.016 84.4461 16C84.4461 14.144 83.3581 13.44 80.6381 12.928L75.3901 12.064C71.7741 11.424 69.2141 9.76 69.2141 6.24C69.2141 3.136 71.7741 0 78.4301 0C84.7021 0 87.5501 3.136 87.5501 7.328V7.52H84.1261V7.104C84.1261 4.48 82.5581 3.168 78.1101 3.168C74.2061 3.168 72.6701 4.128 72.6701 6.048C72.6701 7.904 73.7581 8.512 76.2861 9.056L81.5021 9.952C85.7901 10.72 87.9021 12.672 87.9021 15.808C87.9021 19.072 85.2461 22.08 78.9101 22.08Z" fill="white"/>
<path d="M105.908 21.76H88.7556V0.32H105.908V3.424H92.2116V9.44H105.428V12.512H92.2116V18.656H105.908V21.76Z" fill="white"/>
</svg>
